# xmcd CD database file
#
# Track frame offsets:
#	182
#	12940
#	26135
#	39235
#	51985
#	63210
#	75967
#	88955
#	101560
#	114515
#	125180
#	136537
#	151167
#	162925
#	173542
#	185017
#
# Disc length: 2648 seconds
#
# Revision: 1
# Processed by: cddbd v1.5.1PL0 Copyright (c) Steve Scherf et al.
# Submitted via: CDex 1.51
#
DISCID=c40a5610
DTITLE=Sidney Bechet - CD Collection
DYEAR=1997
DGENRE=Jazz
TTITLE0=Sweetie Dear
TTITLE1=Maple Leaf Rag
TTITLE2=Ja-Da
TTITLE3=High Society
TTITLE4=One O'Clock Jump
TTITLE5=Old Man Blues
TTITLE6=Ain't Misbehavin'
TTITLE7=Muskrat Ramble
TTITLE8=Slippin' And Slidin'
TTITLE9=Swing Parade
TTITLE10=I Know That You Know
TTITLE11=I Ain't Give Nobody None O' This Jelly Roll
TTITLE12=Limehouse Blues
TTITLE13=Rip Up The Joint
TTITLE14=Suey
TTITLE15=12th Street Rag
EXTD=YEAR: 1997
EXTT0=
EXTT1=
EXTT2=
EXTT3=
EXTT4=
EXTT5=
EXTT6=
EXTT7=
EXTT8=
EXTT9=
EXTT10=
EXTT11=
EXTT12=
EXTT13=
EXTT14=
EXTT15=
PLAYORDER=
